<svg viewBox="0 0 2318 570" xmlns="http://www.w3.org/2000/svg">
    <defs>
        <linearGradient gradientTransform="matrix(883.071 -169.435 -169.646 -881.971 628.014 545.509)"
            gradientUnits="userSpaceOnUse" id="LinearGradient" x1="0" x2="1" y1="0" y2="0">
            <stop offset="0" stop-color="#282662" />
            <stop offset="0.095484" stop-color="#68308f" />
            <stop offset="0.7882" stop-color="#a22367" />
            <stop offset="0.9487" stop-color="#cd2032" />
        </linearGradient>
        <linearGradient gradientTransform="matrix(182.626 -320.249 -320.648 -182.399 2149.72 229.387)"
            gradientUnits="userSpaceOnUse" id="LinearGradient_2" x1="0" x2="1" y1="0" y2="0">
            <stop offset="0" stop-color="#f69923" />
            <stop offset="0.3123" stop-color="#f79a23" />
            <stop offset="0.8383" stop-color="#e97826" />
        </linearGradient>
        <linearGradient gradientTransform="matrix(1680.33 -322.405 -322.807 -1678.24 412.463 594.196)"
            gradientUnits="userSpaceOnUse" id="LinearGradient_3" x1="0" x2="1" y1="0" y2="0">
            <stop offset="0.3233" stop-color="#9e2064" />
            <stop offset="0.6302" stop-color="#c92037" />
            <stop offset="0.7514" stop-color="#d12c3e" />
            <stop offset="1" stop-color="#e97826" />
        </linearGradient>
        <linearGradient gradientTransform="matrix(1680.33 -322.405 -322.807 -1678.24 509.841 591.725)"
            gradientUnits="userSpaceOnUse" id="LinearGradient_4" x1="0" x2="1" y1="0" y2="0">
            <stop offset="0.3233" stop-color="#9e2064" />
            <stop offset="0.6302" stop-color="#c92037" />
            <stop offset="0.7514" stop-color="#d12339" />
            <stop offset="1" stop-color="#e97826" />
        </linearGradient>
        <linearGradient gradientTransform="matrix(1680.33 -322.405 -322.807 -1678.24 476.433 418.041)"
            gradientUnits="userSpaceOnUse" id="LinearGradient_5" x1="0" x2="1" y1="0" y2="0">
            <stop offset="0.3233" stop-color="#9e2064" />
            <stop offset="0.6302" stop-color="#cb2239" />
            <stop offset="0.7514" stop-color="#ce2436" />
            <stop offset="1" stop-color="#e97826" />
        </linearGradient>
        <linearGradient gradientTransform="matrix(1680.33 -322.405 -322.807 -1678.24 373.857 446.658)"
            gradientUnits="userSpaceOnUse" id="LinearGradient_6" x1="0" x2="1" y1="0" y2="0">
            <stop offset="0.3233" stop-color="#9e2064" />
            <stop offset="0.6302" stop-color="#c92037" />
            <stop offset="0.7514" stop-color="#cf2739" />
            <stop offset="1" stop-color="#e97826" />
        </linearGradient>
        <linearGradient gradientTransform="matrix(1001.31 -192.121 -192.361 -1000.06 582.911 386.948)"
            gradientUnits="userSpaceOnUse" id="LinearGradient_7" x1="0" x2="1" y1="0" y2="0">
            <stop offset="0" stop-color="#282662" />
            <stop offset="0.095484" stop-color="#662e8d" />
            <stop offset="0.7882" stop-color="#a22367" />
            <stop offset="0.9487" stop-color="#cd2032" />
        </linearGradient>
    </defs>
    <g opacity="1">
        <path
            d="M1182.66 498.284C1141.84 496.216 1101.73 491.97 1062.54 485.059C1061.16 484.794 1059.79 484.617 1058.41 484.352C1084.35 511.271 1101.45 570.185 1101.21 570C1057.1 519.814 1011.14 478.596 960.178 461.36C951.166 480.031 950.216 508.466 953.856 542.523C932.16 502.521 930.047 476.047 930.219 465.995C920.829 495.37 892.463 521.301 860.923 546.682C891.163 505.583 907.89 470.438 908.566 442.431C778.836 454.513 636.692 463.596 486.429 470.649C493.502 458.69 504.131 453.169 516.984 451.807C544.163 450.651 722.621 442.496 960.346 419.208C967.1 418.547 973.902 417.857 980.743 417.177C982.653 416.995 984.573 416.774 986.444 416.582C1011.39 414.081 1036.89 411.385 1062.92 408.535C1068.84 407.873 1074.77 407.21 1080.73 406.558C1080.86 406.549 1080.98 406.539 1081.07 406.52L1191.4 498.751C1189.96 498.681 1184.16 498.379 1182.65 498.29L1182.66 498.284Z"
            fill="url(#LinearGradient)" />
        <path
            d="M2301.67 182.547C2274.54 207.906 2241.24 225.351 2208.85 243.016C2189.66 253.142 2169.35 263.071 2149.72 272.306C2123.51 249.059 2098.56 226.837 2072.76 202.913C2126.42 182.478 2179.99 159.104 2230.16 131.102C2180.18 157.819 2125.83 177.651 2072.43 196.354C2090.78 137.255 2114.54 76.8674 2140.86 18.8244C2188.72 22.4111 2239.7 34.4568 2277.12 66.0954C2297.86 86.1995 2315.82 112.254 2317.92 141.814C2318.77 157.014 2312.5 171.943 2301.68 182.543L2301.67 182.547Z"
            fill="url(#LinearGradient_2)" />
        <path
            d="M1809.13 283.517C1839.45 275.953 1869.24 268.048 1898.37 259.811C1928.61 251.274 1958.12 242.347 1986.73 233.029C1988.4 232.496 1990.12 231.935 1991.82 231.412C2019.99 222.191 2047.27 212.579 2073.57 202.595L2150.56 271.925C2145.34 274.379 2140.04 276.814 2134.65 279.307C2114.33 288.599 2092.59 298.112 2069.66 307.701C2043.83 318.503 2016.39 329.399 1987.76 340.284C1961.29 350.305 1933.7 360.297 1905.31 370.082C1881.13 378.404 1856.31 386.648 1830.97 394.638C1830.03 394.938 1829.12 395.248 1828.17 395.548C1790.31 367.49 1757.8 334.5 1722.61 303.976C1751.82 297.413 1780.67 290.597 1809.13 283.517L1809.13 283.517Z"
            fill="url(#LinearGradient_3)" />
        <path
            d="M1174.06 395.622C1204.41 391.873 1235.16 387.892 1266.25 383.707C1296.02 379.685 1326.01 375.39 1356.23 370.903C1386.44 366.414 1416.76 361.663 1447.18 356.688C1478.11 351.636 1509.08 346.302 1539.93 340.734C1570.45 335.205 1600.91 329.413 1631.15 323.357C1642.05 321.175 1652.93 318.943 1663.77 316.702C1682.52 312.809 1701.14 308.799 1719.62 304.673C1720.62 304.47 1721.6 304.218 1722.61 303.977L1828.16 395.552C1826.27 396.152 1824.39 396.714 1822.5 397.314C1795.61 405.701 1768.19 413.911 1740.33 421.722C1712.2 429.629 1683.66 437.147 1654.86 444.266C1630.56 450.281 1606.13 455.976 1581.59 461.31C1576.6 462.373 1571.69 463.416 1566.75 464.45C1535.92 470.894 1506.36 476.249 1478.1 480.73C1446.08 485.799 1415.72 489.714 1387.15 492.627C1368.35 494.564 1350.28 496.065 1332.99 497.264C1318.28 498.117 1303.57 498.766 1289.01 499.201C1254.64 500.287 1220.67 500.108 1187.17 498.558C1151.83 468.587 1115.58 438.277 1081.07 406.518C1104.86 403.849 1129.05 401.074 1153.53 398.124C1160.32 397.307 1167.2 396.471 1174.04 395.625L1174.06 395.622Z"
            fill="url(#LinearGradient_4)" />
        <path
            d="M1714.76 291.905C1710.73 292.756 1706.67 293.596 1702.55 294.466C1690.27 297.006 1677.78 299.576 1664.99 302.155C1651.16 304.926 1637.04 307.669 1622.6 310.41C1615.33 311.81 1608.03 313.161 1600.59 314.56C1578.38 318.701 1555.48 322.792 1531.87 326.872C1502.86 331.868 1472.77 336.844 1441.59 341.711C1411.87 346.365 1381.18 350.941 1349.48 355.426C1319.4 359.701 1288.4 363.867 1256.5 367.974C1228.04 371.619 1198.89 375.175 1168.93 378.652C1167.48 378.825 1166.03 378.998 1164.58 379.132C1134.84 382.58 1104.34 385.92 1073.11 389.161C1072.39 389.228 1071.67 389.295 1070.99 389.372L1088.86 341.277C1088.81 342.298 1088.67 343.34 1088.62 344.361C1110.89 287.066 1174.95 219.588 1242.38 182.497C1273.45 165.397 1308.49 151.613 1348.19 140.697C1377.75 132.568 1409.88 126.038 1444.93 120.944C1475.55 116.476 1508.35 113.052 1543.59 110.653C1533 122.432 1523.82 136.675 1515.83 152.915C1514.45 155.754 1513.06 158.672 1511.73 161.648C1510.4 164.624 1509.1 167.648 1507.86 170.731C1507.87 170.693 1507.92 170.663 1507.93 170.624C1543.06 120.823 1592.85 96.3457 1649.44 83.6751C1635.89 95.7021 1616.97 116.023 1603.62 142.705C1601.79 146.342 1600.14 150.106 1598.56 153.928C1598.15 154.9 1597.74 155.834 1597.38 156.777C1597.39 156.739 1597.43 156.748 1597.44 156.71C1597.44 156.71 1597.45 156.671 1597.49 156.681C1610.34 139.553 1623.37 125.657 1637.5 114.312C1640.51 111.883 1643.58 109.552 1646.74 107.368C1651.52 104.018 1656.44 100.95 1661.51 98.0868C1664.75 96.2524 1668.04 94.5156 1671.44 92.8858C1679.37 89.0443 1687.71 85.6802 1696.6 82.7839C1699.31 81.8928 1702.05 81.0503 1704.87 80.2274C1708.88 79.2896 1712.78 78.41 1716.64 77.5596C1734.09 73.7522 1749.47 71.0803 1762.86 69.2325C1769.56 68.3085 1775.71 67.5783 1781.39 67.0616C1783.64 66.8412 1785.84 66.6499 1787.96 66.4781C1794.29 66.0012 1799.88 65.7082 1804.75 65.6087C1812.04 65.4544 1817.74 65.687 1821.83 66.0533C1819.88 67.549 1817.86 69.3171 1815.81 71.3672C1801.64 85.5151 1785.34 112.122 1775.29 134.09C1775.29 134.09 1773.19 139.395 1772.36 141.69C1772.19 142.145 1719.63 291.745 1719.63 291.745C1719.02 291.881 1715.42 291.744 1714.75 291.909L1714.76 291.905Z"
            fill="url(#LinearGradient_5)" />
        <path
            d="M2073.32 196.033C2048.6 204.511 2020.68 213.548 1989.28 222.91C1987.66 223.413 1985.97 223.897 1984.31 224.391C1957.13 232.456 1927.43 240.837 1895.05 249.332C1867.09 256.705 1837.21 264.172 1805.19 271.684C1777.32 278.249 1747.76 284.889 1716.65 291.469L1771.98 141.475C1804.23 101.458 1829.09 84.8532 1861.31 72.0561C1870.14 68.7317 1879.34 65.4569 1888.79 62.289C1917.75 52.6021 1949.16 43.8621 1980 36.7177C2009.78 29.844 2038.92 24.5072 2064.79 21.2868C2081.25 19.2587 2096.38 18.0948 2109.43 17.9399C2120.93 17.8116 2131.74 18.1689 2141.95 18.9144C2116.38 76.8271 2087.82 148.429 2073.29 196.044L2073.32 196.033Z"
            fill="url(#LinearGradient_6)" />
        <path
            d="M1057.33 390.817C1033 393.309 1008.28 395.743 983.041 398.089C982.661 398.118 982.32 398.156 981.94 398.185C978.373 398.53 974.816 398.835 971.249 399.18C954.244 400.741 938.973 401.992 904.231 404.888C900.55 384.806 882.535 364.887 861.401 345.01C886.481 352.844 907.744 369.401 921.222 394.015C939.592 304.171 981.355 233.281 1056.35 210.049C1063.05 207.967 1069.94 206.264 1077.18 204.981C1049.82 217.221 1034.5 237.079 1026.3 279.661C1026.24 279.73 1026.18 279.836 1026.12 279.905C1026.18 279.836 1026.24 279.73 1026.3 279.661C1069.57 224.832 1103.96 200.497 1154.92 184.176C1167 180.302 1180 176.867 1194.29 173.59C1125.12 213.676 1093.52 272.33 1088.9 341.301L1088.63 344.354L1071.02 389.396C1066.46 389.905 1061.91 390.375 1057.32 390.835L1057.33 390.817Z"
            fill="url(#LinearGradient_7)" />
    </g>
    <g opacity="1">
        <g opacity="1">
            <path
                d="M985.839 11.3303C1001.2 0.547259 1021.36-2.50293 1039.45 2.02493C1054.8 5.70913 1068.29 16.4472 1075.04 30.7247C1071.34 32.9612 1067.64 35.2176 1063.93 37.4491C1060.62 30.535 1055.55 24.4097 1049.12 20.1863C1040.44 14.3805 1029.74 12.0441 1019.39 12.5733C1008.71 13.0326 998.205 17.1112 990.148 24.1501C978.242 34.4588 971.579 49.8995 970.259 65.4051C968.705 82.9274 974.678 101.079 986.749 113.949C992.562 120.154 999.835 125.071 1007.94 127.757C1025.41 133.653 1046.04 128.461 1058.69 115.072C1061.77 111.802 1064.32 108.053 1066.32 104.039C1070.16 106.021 1074.01 107.983 1077.84 109.995C1074.34 117.942 1068.49 124.732 1061.48 129.814C1045.04 141.705 1022.83 146.143 1003.39 139.673C989.023 134.901 976.907 124.587 968.745 111.972C958.553 96.2814 953.95 76.8171 957.109 58.2913C960.143 39.7505 970.294 22.1432 985.839 11.3303Z"
                fill="#d32128" />
            <path
                d="M734.722 141.485C734.712 94.5891 734.702 47.693 734.727 0.796866C754.31 0.811842 773.899 0.786882 793.483 0.811842C801.45 0.861764 809.327 3.53755 815.77 8.19022C826.667 16.0229 833.754 28.8676 834.684 42.2316C835.279 52.0611 832.79 62.0703 827.591 70.4471C823.103 77.7157 816.415 83.7312 808.423 86.8862C803.694 88.7882 798.581 89.6469 793.493 89.567C778.467 89.562 763.442 89.562 748.417 89.567C748.412 106.87 748.412 124.172 748.417 141.475C743.849 141.49 739.285 141.475 734.722 141.485M748.417 13.0825C748.407 34.4838 748.412 55.8801 748.417 77.2764C763.432 77.2863 778.447 77.2764 793.463 77.2813C799.071 77.3213 804.679 75.4193 809.057 71.8998C814.666 67.4269 818.294 60.8123 819.879 53.8832C821.903 45.2269 820.924 35.7568 816.425 28.009C811.662 19.4575 802.475 13.1175 792.498 13.0925C777.808 13.0675 763.113 13.0875 748.417 13.0825Z"
                fill="#d32128" />
            <path
                d="M886.042 0.80685C889.811 0.796866 893.585 0.801858 897.358 0.80685C917.017 47.693 936.67 94.5841 956.319 141.48C951.356 141.48 946.397 141.485 941.439 141.48C935.346 126.823 929.263 112.161 923.175 97.5045C902.057 97.4995 880.944 97.4945 859.826 97.5045C853.823 112.161 847.78 126.803 841.792 141.465C836.888 141.5 831.985 141.475 827.086 141.48C846.73 94.5841 866.394 47.698 886.042 0.80685M862.83 86.6166C881.883 86.6216 900.937 86.6166 919.986 86.6166C910.614 63.4182 901.192 40.2447 891.805 17.0513C882.138 40.2347 872.457 63.4132 862.83 86.6166Z"
                fill="#d32128" />
            <path
                d="M1097.19 0.80685C1101.75 0.796866 1106.32 0.801858 1110.88 0.80685C1110.89 21.669 1110.88 42.5361 1110.89 63.4032C1138.75 63.4032 1166.6 63.4082 1194.46 63.3982C1194.47 42.5361 1194.46 21.669 1194.47 0.80685C1199.1 0.796866 1203.73 0.801858 1208.37 0.80685C1208.37 47.698 1208.37 94.5841 1208.37 141.475C1203.73 141.48 1199.09 141.49 1194.46 141.47C1194.47 119.545 1194.47 97.6143 1194.46 75.6889C1166.6 75.6789 1138.75 75.6839 1110.89 75.6839C1110.87 97.6193 1110.92 119.55 1110.86 141.485C1106.3 141.47 1101.74 141.495 1097.19 141.47C1097.19 94.5841 1097.18 47.693 1097.19 0.80685Z"
                fill="#d32128" />
            <path
                d="M1240.24 0.80685C1271.21 0.791874 1302.17 0.80685 1333.14 0.796866C1333.16 4.89541 1333.16 8.98896 1333.14 13.0875C1306.73 13.0775 1280.33 13.0875 1253.93 13.0825C1253.92 29.9859 1253.93 46.8942 1253.92 63.7976C1276.95 63.8076 1299.99 63.7976 1323.02 63.8026L1323.02 75.4792C1299.99 75.4892 1276.96 75.4842 1253.93 75.4842C1253.92 93.386 1253.93 111.293 1253.92 129.195C1280.93 129.205 1307.93 129.195 1334.94 129.205C1334.94 133.293 1334.93 137.382 1334.94 141.47C1303.37 141.49 1271.81 141.485 1240.24 141.47C1240.24 94.5841 1240.23 47.693 1240.24 0.80685Z"
                fill="#d32128" />
        </g>
        <path
            d="M649.195 0.80685C652.964 0.796866 656.737 0.801858 660.511 0.80685C680.17 47.693 699.823 94.5841 719.472 141.48C714.508 141.48 709.55 141.485 704.592 141.48C698.499 126.823 692.416 112.161 686.328 97.5045C665.21 97.4995 644.097 97.4945 622.979 97.5045C616.976 112.161 610.933 126.803 604.945 141.465C600.041 141.5 595.138 141.475 590.239 141.48C609.883 94.5841 629.546 47.698 649.195 0.80685M625.983 86.6166C645.036 86.6216 664.09 86.6166 683.139 86.6166C673.767 63.4182 664.345 40.2447 654.958 17.0513C645.291 40.2347 635.609 63.4132 625.983 86.6166Z"
            fill="#d32128" />
    </g>
    <g opacity="1">
        <path
            d="M2001.3 480.899C2005.72 480.898 2010.14 480.898 2014.57 480.899C2014.57 481.843 2014.57 482.787 2014.57 483.731C2012.92 483.734 2011.27 483.73 2009.62 483.734C2009.63 488.35 2009.62 492.966 2009.63 497.583C2008.5 497.584 2007.37 497.584 2006.25 497.583C2006.25 492.966 2006.25 488.35 2006.25 483.734C2004.6 483.73 2002.95 483.734 2001.3 483.731C2001.3 482.787 2001.3 481.843 2001.3 480.899Z"
            fill="#66c2e3" />
        <path
            d="M2016.69 497.583C2016.69 492.021 2016.69 486.459 2016.69 480.898C2018.38 480.899 2020.06 480.896 2021.74 480.899C2022.75 484.69 2023.76 488.482 2024.77 492.275C2025.78 488.485 2026.77 484.691 2027.77 480.9C2029.46 480.895 2031.14 480.899 2032.83 480.898C2032.83 486.46 2032.83 492.022 2032.82 497.584C2031.78 497.583 2030.74 497.584 2029.7 497.584C2029.69 493.21 2029.7 488.835 2029.69 484.462C2028.59 488.837 2027.48 493.21 2026.38 497.584C2025.3 497.585 2024.22 497.583 2023.14 497.585C2022.03 493.213 2020.94 488.842 2019.83 484.471C2019.83 488.842 2019.84 493.213 2019.83 497.584C2018.79 497.583 2017.74 497.585 2016.69 497.583Z"
            fill="#66c2e3" />
    </g>
    <g opacity="1">
        <path
            d="M1704.65 537.857L1824.61 537.857C1829.56 515.353 1834.52 492.852 1839.47 470.35C1873.7 470.35 1909.05 470.571 1943.28 470.571C1960 470.571 1974.8 465.385 1987.95 456.512C2003.82 445.801 2015.67 429.39 2020.12 409.141C2027.65 374.891 2035.22 340.649 2042.79 306.407C2047.11 286.859 2052.72 264.785 2038.69 247.13C2025.78 230.884 2008.65 229.621 1989.84 229.621C1854.4 229.77 1718.96 229.618 1583.51 229.618C1569.84 229.618 1558.39 234.034 1546.44 240.189C1535.23 232.272 1525.11 229.618 1511.37 229.618L1325.46 229.618C1330.54 206.805 1335.61 183.994 1340.69 161.182L1220.54 161.182C1215.59 183.438 1210.64 205.695 1205.69 227.947L1100.02 227.947C1085.43 227.947 1071.41 232.52 1059.17 240.373C1047.31 233.002 1038.16 229.801 1024.1 229.801L675.338 229.801C680.662 206.682 685.986 183.558 691.308 160.436C651.323 160.375 611.334 160.313 571.35 160.252C548.297 263.231 525.243 366.211 502.192 469.19C542.141 469.202 582.09 469.213 622.035 469.224C634.053 416.522 646.069 363.819 658.085 311.116L698.638 311.116C703.465 311.116 702.515 313.862 701.706 317.49C690.34 368.069 678.973 418.648 667.608 469.226C932.448 469.226 1197.28 469.227 1462.14 469.227C1475.62 469.227 1486.16 466.443 1498.3 460.263C1510.26 468.243 1520.83 470.894 1535.44 470.768L1719.46 469.226C1714.52 492.104 1709.59 514.981 1704.65 537.861L1704.65 537.857ZM1185.72 311.333L1150.35 311.333C1144.15 311.333 1142.47 314.159 1141.24 319.714C1136.81 339.549 1132.38 359.387 1127.96 379.217C1126.69 384.918 1129.58 385.85 1134.58 385.85L1169 385.85C1174.57 361.011 1180.14 336.172 1185.72 311.332L1185.72 311.333ZM1388.59 312.771L1426.37 312.771C1433.63 312.771 1433.24 316.579 1431.93 322.46C1427.6 341.888 1423.28 361.32 1418.95 380.748C1417.44 387.533 1413.21 387.417 1407.37 387.417L1368.93 387.417C1363.28 387.417 1363.23 384.083 1364.24 379.523C1368.55 360.098 1372.86 340.671 1377.16 321.246C1378.76 314.048 1381.59 312.771 1388.59 312.771L1388.59 312.771ZM1637.26 312.771L1675.04 312.771C1682.31 312.771 1681.91 316.579 1680.6 322.46C1676.28 341.888 1671.95 361.32 1667.62 380.748C1666.11 387.533 1661.88 387.417 1656.04 387.417L1617.6 387.417C1611.96 387.417 1611.91 384.083 1612.91 379.523C1617.22 360.098 1621.53 340.671 1625.84 321.246C1627.43 314.048 1630.27 312.771 1637.26 312.771L1637.26 312.771ZM1859.02 387.976L1894.39 387.976C1900.59 387.976 1902.27 385.15 1903.5 379.596C1907.93 359.761 1912.35 339.923 1916.78 320.092C1918.04 314.391 1915.16 313.459 1910.16 313.459L1875.74 313.459C1870.17 338.298 1864.6 363.137 1859.02 387.978"
            fill="#000000" fill-rule="evenodd" opacity="1" stroke="none" />
        <g opacity="1">
            <path
                d="M1360.93 246.998L1511.61 246.998C1535.13 246.998 1550.1 266.215 1544.89 289.696L1518.05 410.728C1512.84 434.209 1489.34 453.426 1465.83 453.426L1315.15 453.426C1291.64 453.426 1276.66 434.213 1281.87 410.728L1308.72 289.696C1313.93 266.211 1337.42 246.998 1360.94 246.998L1360.93 246.998ZM1388.25 295.588L1462.74 295.588C1475.19 295.588 1483.11 305.757 1480.36 318.179L1466.15 382.24C1463.39 394.662 1450.95 404.831 1438.51 404.831L1364.01 404.831C1351.57 404.831 1343.64 394.664 1346.4 382.24L1360.61 318.179C1363.36 305.752 1375.8 295.588 1388.24 295.588"
                fill="#66c2e3" fill-rule="evenodd" opacity="1" stroke="none" />
            <path
                d="M1263.18 176.272L1247.78 245.45L1124.95 245.351C1101.45 245.338 1077.98 264.551 1072.78 288.03L1045.85 409.118C1040.64 432.594 1055.62 451.797 1079.14 451.797L1260 451.797L1305.81 245.452L1321.12 176.275L1263.18 176.275L1263.18 176.272ZM1152.28 293.983L1237.04 293.983L1212.7 403.16L1128.03 403.16C1115.58 403.16 1107.68 393.046 1110.44 380.63L1124.65 316.511C1127.41 304.094 1139.84 293.981 1152.28 293.981L1152.28 293.983Z"
                fill="#66c2e3" fill-rule="evenodd" opacity="1" stroke="none" />
            <path
                d="M613.663 176.272L590.21 281.876L590.508 281.876L589.514 286.044C589.142 287.252 588.794 288.483 588.52 289.717L569.043 377.357L569.242 377.357L552.646 451.797L610.582 451.797L627.178 377.357L627.277 377.357L640.395 318.203C640.417 318.108 640.376 317.999 640.395 317.905L645.463 295.574L730.033 295.574C742.473 295.574 750.475 305.775 747.721 318.203L734.405 378.151L718.108 451.797L776.143 451.797L792.54 378.151L792.639 378.151L812.216 289.717C817.423 266.233 802.439 246.939 778.924 246.939L655.997 246.939L671.699 176.271L613.663 176.271L613.663 176.272Z"
                fill="#66c2e3" fill-rule="evenodd" opacity="1" stroke="none" />
            <path
                d="M1024.09 451.778L830.802 451.778C807.29 451.778 792.312 432.559 797.52 409.08L805.308 373.962L805.344 373.962L806.842 367.209C812.046 343.731 835.556 324.503 859.061 324.511L994.308 324.572L996.303 315.605C998.426 303.901 991.039 294.416 979.423 293.942L822.863 293.942L833.64 245.372L1027.93 245.427C1050.96 245.88 1065.52 264.907 1060.38 288.109L1056.72 304.593L1056.75 304.593L1052.31 324.594L1052.36 324.594L1029.56 427.34L1029.51 427.34L1024.09 451.774L1024.09 451.778ZM873.843 403.184L976.816 403.184L983.512 373.098L882.304 373.098C881.817 373.048 881.316 373.02 880.804 373.02C872.513 373.02 864.236 379.792 862.408 388.072C860.6 396.256 865.74 402.964 873.861 403.124C873.857 403.144 873.853 403.165 873.845 403.184"
                fill="#66c2e3" fill-rule="evenodd" opacity="1" stroke="none" />
            <path
                d="M1609.29 246.998L1759.97 246.998C1783.49 246.998 1798.46 266.215 1793.25 289.696L1766.41 410.728C1761.2 434.209 1737.7 453.426 1714.19 453.426L1563.51 453.426C1540 453.426 1525.02 434.213 1530.23 410.728L1557.08 289.696C1562.29 266.211 1585.78 246.998 1609.3 246.998L1609.29 246.998ZM1636.61 295.588L1711.1 295.588C1723.55 295.588 1731.47 305.757 1728.72 318.179L1714.51 382.24C1711.75 394.662 1699.31 404.831 1686.87 404.831L1612.37 404.831C1599.93 404.831 1592 394.664 1594.76 382.24L1608.97 318.179C1611.72 305.752 1624.16 295.588 1636.6 295.588"
                fill="#66c2e3" fill-rule="evenodd" opacity="1" stroke="none" />
            <path
                d="M1811.83 522.445L1827.23 453.267L1950.06 453.366C1973.56 453.379 1997.03 434.165 2002.23 410.686L2029.16 289.599C2034.37 266.123 2019.39 246.919 1995.87 246.919L1815.01 246.919L1769.2 453.264L1753.89 522.442L1811.83 522.442L1811.83 522.445ZM1922.73 404.734L1837.97 404.734L1862.31 295.557L1946.98 295.557C1959.43 295.557 1967.32 305.67 1964.57 318.087L1950.36 382.205C1947.6 394.622 1935.17 404.735 1922.73 404.735L1922.73 404.734Z"
                fill="#66c2e3" fill-rule="evenodd" opacity="1" stroke="none" />
        </g>
        <path
            d="M67.1093 326.082C66.1549 328.679 65.1961 331.281 64.2406 333.879L58.7463 331.867C59.7019 329.269 60.661 326.667 61.6151 324.07L67.1093 326.082ZM64.2406 333.879C62.8187 337.743 61.3944 341.612 59.9734 345.476L54.4795 343.464C55.9002 339.6 57.3244 335.731 58.7463 331.867L64.2406 333.879ZM59.9734 345.476L59.2861 346.539L57.2266 344.47L59.9734 345.476ZM59.2861 346.539C56.1673 349.622 53.0449 352.711 49.9249 355.797L45.8056 351.661C48.9256 348.575 52.0476 345.485 55.1668 342.402L59.2861 346.539ZM49.9249 355.797C47.1587 358.534 44.3889 361.274 41.6215 364.01L37.5022 359.873C40.2696 357.138 43.039 354.397 45.8056 351.661L49.9249 355.797ZM41.6215 364.01C40.3563 365.26 39.927 365.674 39.5461 366.041L35.4944 361.811C36.3395 360.999 37.2724 360.101 37.5022 359.873L41.6215 364.01ZM39.5461 366.041C35.7985 369.644 35.0572 370.358 36.1364 376.797L30.3674 377.758C28.7766 368.272 29.8865 367.203 35.4944 361.811L39.5461 366.041ZM36.1364 376.797C37.0065 381.98 38.7325 387.27 41.4414 392.418L36.2449 395.139C33.2553 389.458 31.3421 383.57 30.3674 377.758L36.1364 376.797ZM41.4414 392.418C43.9564 397.2 47.3042 401.831 51.5769 406.11L47.4346 410.225C42.6932 405.476 38.9996 400.376 36.2449 395.139L41.4414 392.418ZM51.5769 406.11C57.0438 411.584 65.9681 418.367 75.2561 421.891L73.1963 427.357C63.0461 423.504 53.3526 416.149 47.4346 410.225L51.5769 406.11ZM75.2561 421.891C81.7171 424.344 88.3017 425.188 93.804 422.756L96.1611 428.106C89.0634 431.243 80.9686 430.307 73.1963 427.357L75.2561 421.891ZM93.804 422.756L99.4568 420.257L97.8096 426.208L94.9826 425.431L93.804 422.756ZM97.8096 426.208C97.075 428.863 96.2152 431.586 95.227 434.316L89.7105 432.326C90.6478 429.734 91.4623 427.159 92.1555 424.653L97.8096 426.208ZM95.227 434.316C94.304 436.863 93.2598 439.444 92.0856 442.016L86.7515 439.592C87.841 437.204 88.8268 434.765 89.7105 432.326L95.227 434.316ZM92.0856 442.016C87.1355 452.855 92.3233 458.563 100.364 462.226L97.9368 467.554C86.9351 462.543 79.8667 454.67 86.7515 439.592L92.0856 442.016ZM100.364 462.226C105.502 464.566 111.72 466.183 117.498 467.687L116.033 473.334C109.962 471.755 103.43 470.054 97.9368 467.554L100.364 462.226ZM117.498 467.687C119.025 468.082 120.504 468.468 121.567 468.755L120.079 474.402C118.514 473.978 117.272 473.654 116.033 473.334L117.498 467.687ZM121.567 468.755C128.534 470.636 140.581 474.086 151.409 474.772L151.042 480.624C139.695 479.906 127.272 476.344 120.079 474.402L121.567 468.755ZM151.409 474.772C161.195 475.391 169.92 473.745 171.939 466.261L177.593 467.746C174.597 478.852 163.428 481.408 151.042 480.624L151.409 474.772ZM171.939 466.261C173.007 462.296 173.627 459.234 173.885 456.198L179.744 456.677C179.465 459.976 178.779 463.347 177.593 467.746L171.939 466.261ZM173.885 456.198C174.144 453.147 174.038 450.185 173.662 446.428L179.476 445.879C179.9 450.108 180.023 453.392 179.744 456.677L173.885 456.198ZM173.662 446.428L173.891 444.965L176.569 446.154L173.662 446.428ZM173.891 444.965C177.832 436.177 179.457 433.804 182.326 429.607L187.155 432.9C184.503 436.779 183.001 438.976 179.247 447.342L173.891 444.965ZM182.326 429.607C182.619 429.179 182.869 428.814 183.607 427.72L188.459 430.988C188.273 431.265 187.662 432.157 187.155 432.9L182.326 429.607ZM183.607 427.72C185.844 424.406 186.872 422.192 187.201 419.903L192.993 420.704C192.522 423.981 191.225 426.888 188.459 430.988L183.607 427.72ZM187.201 419.903C187.545 417.499 187.199 414.63 186.677 410.244L192.491 409.58C193.064 414.396 193.446 417.544 192.993 420.704L187.201 419.903ZM186.677 410.244C186.534 409.045 186.416 408.098 186.334 407.479L192.125 406.748C192.301 408.063 192.422 408.991 192.491 409.58L186.677 410.244ZM186.334 407.479C186.268 406.983 186.123 405.985 185.92 404.595L191.712 403.748C191.802 404.371 191.938 405.342 192.125 406.748L186.334 407.479ZM185.92 404.595L185.349 400.692L189.251 401.279L188.816 404.171L185.92 404.595ZM189.251 401.279C197.538 402.524 205.671 403.14 213.762 403.192L213.739 409.044C205.375 408.99 196.96 408.352 188.381 407.064L189.251 401.279ZM213.762 403.192C221.877 403.244 229.948 402.732 238.088 401.724L238.775 407.531C230.387 408.569 222.079 409.097 213.739 409.044L213.762 403.192ZM238.088 401.724L239.896 407.165L238.431 404.627L238.088 401.724ZM239.896 407.165C235.167 409.917 230.447 412.341 224.424 415.431L221.747 410.218C227.691 407.168 232.349 404.776 236.967 402.09L239.896 407.165ZM224.424 415.431C223.985 415.656 223.534 415.888 223.08 416.121L220.403 410.908C220.857 410.675 221.308 410.443 221.747 410.218L224.424 415.431ZM223.08 416.121C216.891 419.299 216.834 425.971 219.02 432.96L213.436 434.697C210.441 425.123 210.84 415.818 220.403 410.908L223.08 416.121ZM219.02 432.96C221.5 440.891 226.767 449.238 230.073 454.326L225.174 457.504C221.691 452.144 216.136 443.331 213.436 434.697L219.02 432.96ZM230.073 454.326C236.992 464.978 243.519 473.946 251.013 478.533L247.968 483.516C239.494 478.329 232.501 468.784 225.174 457.504L230.073 454.326ZM251.013 478.533C258.093 482.868 266.373 483.27 277.339 477.343L280.109 482.511C267.004 489.594 256.855 488.957 247.968 483.516L251.013 478.533ZM277.339 477.343C282.521 474.542 284.261 471.5 286.603 467.401L291.707 470.281C288.877 475.233 286.776 478.906 280.109 482.511L277.339 477.343ZM286.603 467.401C287.535 465.77 288.558 463.983 290.056 461.749L294.908 464.994C293.709 466.783 292.662 468.613 291.707 470.281L286.603 467.401ZM290.056 461.749L291.074 460.801L292.482 463.372L290.056 461.749ZM291.074 460.801C292.785 459.863 300.092 453.834 307.198 447.969L310.93 452.472C303.582 458.538 296.022 464.775 293.889 465.943L291.074 460.801ZM307.198 447.969C310.857 444.95 314.466 441.972 316.339 440.461L320.023 445.033C316.596 447.799 313.776 450.125 310.93 452.472L307.198 447.969ZM316.339 440.461L318.583 438.651L320.436 440.872L318.181 442.747L316.339 440.461ZM320.436 440.872C321.604 442.272 323.452 443.138 325.964 443.738L324.614 449.431C320.869 448.536 317.994 447.099 315.926 444.622L320.436 440.872ZM325.964 443.738C328.847 444.427 332.635 444.765 337.225 445.095L336.812 450.946C332.002 450.6 327.987 450.237 324.614 449.431L325.964 443.738ZM337.225 445.095C340.824 445.355 352.321 445.349 359.746 445.347L359.746 451.198C352.16 451.202 340.415 451.208 336.812 450.946L337.225 445.095ZM359.746 445.347C362.101 445.345 364.057 445.345 365.227 445.352L365.204 451.204C364.035 451.197 362.088 451.198 359.744 451.198L359.744 445.347L359.746 445.347ZM365.227 445.352C372.146 445.395 377.631 445.088 381.253 443.038L384.137 448.136C379.357 450.841 373.036 451.252 365.205 451.204L365.229 445.352L365.227 445.352ZM381.253 443.038C384.562 441.166 386.551 437.477 387.045 430.578L392.905 430.99C392.248 440.146 389.23 445.255 384.137 448.136L381.253 443.038ZM387.045 430.578C387.299 427.035 387.359 424.921 386.96 423.109L392.682 421.851C393.246 424.415 393.195 426.922 392.905 430.99L387.045 430.578ZM386.96 423.109C386.561 421.295 385.621 419.415 383.88 416.324L389.007 413.466C391.015 417.029 392.118 419.29 392.682 421.851L386.96 423.109ZM383.88 416.324L383.514 414.964L386.444 414.895L383.88 416.324ZM383.514 414.964C383.401 410.765 383.286 406.563 383.176 402.364L389.035 402.227C389.145 406.426 389.261 410.628 389.373 414.827L383.514 414.964ZM383.176 402.364C383.064 398.166 382.95 393.963 382.839 389.766L388.698 389.628C388.809 393.826 388.924 398.028 389.035 402.227L383.176 402.364ZM382.839 389.766C382.717 385.257 382.229 381.639 381.337 378.121L387.014 376.703C388.018 380.659 388.564 384.678 388.698 389.628L382.839 389.766ZM381.337 378.121C380.437 374.577 379.096 371.032 377.285 366.726L382.687 364.462C384.591 368.991 386.016 372.771 387.014 376.703L381.337 378.121ZM377.285 366.726C376.003 363.681 374.904 360.722 373.828 357.822L379.322 355.81C380.348 358.574 381.395 361.394 382.687 364.462L377.285 366.726ZM379.322 355.799L379.322 355.81L376.575 356.816L379.322 355.799ZM373.828 357.833C372.154 353.323 370.529 348.947 368.145 344.245L373.387 341.617C375.889 346.551 377.581 351.104 379.322 355.799L373.828 357.833ZM368.145 344.245L367.881 342.428L370.766 342.931L368.145 344.245ZM367.881 342.428C368.17 340.796 368.412 339.281 368.595 337.909L374.387 338.641C374.148 340.427 373.901 342.016 373.65 343.434L367.881 342.428ZM368.595 337.909C368.761 336.664 368.93 335.104 369.099 333.2L374.958 333.679C374.835 335.063 374.642 336.729 374.387 338.641L368.595 337.909ZM369.099 333.2L369.644 327.081L374.055 331.325L372.029 333.439L369.099 333.2ZM374.055 331.325C376.923 334.084 379.795 336.848 382.663 339.609L378.611 343.838C375.743 341.078 372.872 338.314 370.003 335.554L374.055 331.325ZM382.663 339.609L389.099 345.803L385.048 350.032L378.611 343.838L382.663 339.609ZM389.099 345.803C393.745 350.273 397.989 354.334 402.699 357.109L399.724 362.163C394.451 359.055 389.96 354.76 385.048 350.032L389.099 345.803ZM402.699 357.109C407.228 359.779 412.337 361.326 418.974 361.013L419.249 366.865C411.309 367.24 405.176 365.376 399.724 362.163L402.699 357.109ZM418.974 361.013C426.135 360.677 433.871 357.607 440.301 352.869L443.781 357.578C436.457 362.974 427.563 366.474 419.249 366.865L418.974 361.013ZM440.301 352.869C446.438 348.348 451.33 342.35 453.318 335.823L458.927 337.516C456.553 345.31 450.866 352.357 443.781 357.578L440.301 352.869ZM453.318 335.823C454.003 333.57 454.689 331.315 455.373 329.063L460.982 330.755C460.298 333.007 459.612 335.263 458.927 337.516L453.318 335.823ZM455.373 329.063C456.169 326.441 456.968 323.815 457.765 321.194L463.374 322.887C462.578 325.508 461.778 328.133 460.982 330.755L455.373 329.063ZM457.765 321.194L458.529 318.685L461.107 319.172L460.57 322.041L457.765 321.194ZM461.107 319.172C472.971 321.411 485.891 322.193 498.307 320.894L498.879 326.701C485.897 328.06 472.408 327.244 460.032 324.909L461.107 319.172ZM498.307 320.894C509.215 319.751 519.736 316.986 528.779 312.167L531.526 317.334C521.81 322.512 510.543 325.479 498.879 326.701L498.307 320.894ZM528.779 312.167C542.026 305.106 551.974 294.677 559.137 282.284L564.218 285.188C556.522 298.503 545.812 309.72 531.526 317.334L528.779 312.167ZM559.137 282.284L559.137 282.272L561.678 283.735L559.137 282.284L559.137 282.284ZM559.137 282.272C567.322 268.113 571.907 251.406 573.652 234.195L579.466 234.744C577.636 252.786 572.82 270.317 564.218 285.2L559.137 282.272ZM573.652 234.195C575.074 220.169 574.286 201.041 571.346 182.54L577.116 181.626C580.131 200.599 580.933 220.272 579.466 234.742L573.652 234.195ZM571.346 182.54C568.754 166.222 564.489 150.441 558.604 139.191L563.801 136.493C569.977 148.299 574.429 164.716 577.116 181.628L571.346 182.54ZM558.604 139.191C558.143 138.309 557.377 137.347 556.393 136.377L560.49 132.192C561.903 133.587 563.048 135.051 563.801 136.493L558.604 139.191ZM556.393 136.377C553.881 133.902 550.15 131.558 546.285 130.23L548.184 124.698C552.879 126.31 557.422 129.169 560.49 132.192L556.393 136.377ZM546.285 130.23C542.699 128.998 539.086 128.658 536.505 130.005L533.804 124.815C537.967 122.641 543.211 122.989 548.184 124.698L546.285 130.23ZM536.505 130.005C535.965 130.286 535.46 130.653 535.012 131.108L530.822 127.016C531.719 126.108 532.723 125.377 533.804 124.815L536.505 130.005ZM535.012 131.108C532.616 133.533 530.513 136.599 528.406 139.674L523.577 136.381C525.853 133.059 528.126 129.746 530.822 127.016L535.012 131.108ZM528.406 139.674C525.635 143.717 522.85 147.779 519.245 150.854L515.446 146.396C518.494 143.795 521.042 140.079 523.577 136.381L528.406 139.674ZM519.245 150.854C514.833 154.62 509.718 156.669 504.967 158.572L502.792 153.132C507.113 151.403 511.764 149.538 515.446 146.396L519.245 150.854ZM504.967 158.572C504.139 158.903 503.326 159.23 502.81 159.441L500.591 154.024C501.501 153.65 502.149 153.39 502.792 153.132L504.967 158.572ZM502.81 159.441L500.013 160.593L498.953 157.738L501.701 156.732L502.81 159.441ZM498.953 157.738C497.059 152.629 494.735 148.066 492.044 143.776L497.011 140.668C499.89 145.257 502.389 150.174 504.448 155.726L498.953 157.738ZM492.044 143.776C489.325 139.44 486.242 135.401 482.857 131.372L487.344 127.622C490.916 131.874 494.161 136.125 497.011 140.668L492.044 143.776ZM482.857 131.372C480.242 128.262 477.705 125.932 474.965 123.848L478.511 119.207C481.585 121.545 484.426 124.152 487.344 127.622L482.857 131.372ZM474.965 123.848C472.23 121.767 469.122 119.817 465.496 117.55L468.608 112.59C472.279 114.885 475.431 116.863 478.511 119.207L474.965 123.848ZM465.496 117.55C455.281 111.162 446.718 103.66 437.983 96.0059L441.828 91.5947C450.379 99.0875 458.761 106.431 468.608 112.59L465.496 117.55ZM437.983 96.0059C434.306 92.7854 430.595 89.5339 426.447 86.1184L430.18 81.5922C434.018 84.7535 437.942 88.1904 441.828 91.5947L437.983 96.0059ZM426.447 86.1184C407.099 70.1846 389.179 62.4644 370.145 61.267L370.513 55.4151C390.826 56.6923 409.819 64.8254 430.182 81.5922L426.447 86.1184ZM370.145 61.267C350.97 60.0617 330.479 65.4252 306.151 75.6525L303.884 70.2576C329.034 59.6845 350.34 54.1479 370.513 55.4151L370.145 61.267ZM306.151 75.6525C294.686 80.4714 286.202 86.1411 278.839 92.9406L274.88 88.6418C282.73 81.3909 291.746 75.3599 303.884 70.2576L306.151 75.6525ZM278.839 92.9406C271.422 99.7918 265.044 107.886 257.893 117.441L253.201 113.943C260.526 104.156 267.086 95.8407 274.88 88.6418L278.839 92.9406ZM257.893 117.441L257.066 118.547L255.695 118.618L255.547 115.692L257.893 117.441ZM255.695 118.618C251.621 118.83 248.209 119.322 244.817 120.677L242.642 115.237C246.75 113.596 250.722 113.008 255.398 112.766L255.695 118.618ZM244.817 120.677C241.372 122.052 237.821 124.353 233.472 128.187L229.603 123.798C234.499 119.483 238.584 116.857 242.642 115.237L244.817 120.677ZM233.472 128.187C230.122 131.139 226.858 134.163 223.653 137.259L219.579 133.052C222.795 129.945 226.126 126.862 229.603 123.798L233.472 128.187ZM223.653 137.259L223.642 137.271L221.616 135.156L223.653 137.26L223.653 137.259ZM223.642 137.271C220.468 140.336 217.368 143.461 214.319 146.64L210.085 142.593C213.185 139.361 216.344 136.177 219.59 133.042L223.642 137.271ZM214.319 146.64L212.659 147.497L212.202 144.616L214.319 146.64ZM212.659 147.497C189.758 151.142 171.2 155.143 154.624 161.555L152.519 156.091C169.466 149.535 188.398 145.451 211.747 141.735L212.659 147.497ZM154.624 161.555C138.191 167.913 123.688 176.676 108.772 189.883L104.903 185.494C120.374 171.795 135.434 162.7 152.52 156.091L154.624 161.555ZM108.772 189.883C102.728 195.235 97.5158 200.867 92.9692 206.813L88.3224 203.271C93.1123 197.005 98.5819 191.091 104.903 185.494L108.772 189.883ZM92.9692 206.813C88.4206 212.762 84.512 219.061 81.0795 225.739L75.8603 223.087C79.4378 216.127 83.5337 209.535 88.3224 203.271L92.9692 206.813ZM81.0795 225.739L80.6447 226.368L78.4699 224.413L81.0795 225.739ZM80.6447 226.368C77.3128 230.045 73.9877 233.772 70.4213 236.978L66.5071 232.612C69.9503 229.515 73.1192 225.964 76.2952 222.459L80.6447 226.368ZM70.4213 236.978C66.6828 240.339 62.6299 243.198 57.9457 245L55.8409 239.535C59.7496 238.031 63.2349 235.553 66.5071 232.612L70.4213 236.978ZM57.9457 245L57.9346 245L56.8935 242.267L57.9457 245ZM57.9346 245C54.1754 246.443 52.3378 247.166 50.2556 246.285L52.5226 240.89C52.6172 240.929 53.5617 240.414 55.8521 239.535L57.9346 245ZM50.2556 246.285L50.2441 246.273L51.3889 243.587L50.2556 246.285L50.2556 246.285ZM50.2441 246.273C48.0483 245.342 47.4354 243.541 46.0763 239.918L51.5706 237.883C52.3421 239.943 52.3266 240.813 52.5337 240.901L50.2441 246.273ZM46.0763 239.918L45.3123 237.88L47.0724 236.558L48.8234 238.901L46.0763 239.918ZM47.0724 236.558C52.4562 232.518 52.9666 224.471 53.4567 216.722L59.3159 217.089C58.7435 226.15 58.1453 235.562 50.5744 241.244L47.0724 236.558ZM53.4567 216.722C53.5199 215.708 53.5851 214.7 53.6404 213.931L59.4995 214.343C59.4228 215.402 59.3688 216.248 59.3159 217.089L53.4567 216.722ZM53.6404 213.931L53.8487 211.076L56.7075 211.211L56.57 214.137L53.6404 213.931ZM56.7075 211.211C61.5403 211.44 63.7421 214.846 66.1172 218.519L61.1953 221.675C59.6776 219.327 58.2693 217.15 56.4324 217.063L56.7075 211.211ZM66.1172 218.519C66.7798 219.545 67.4627 220.6 68.185 221.511L63.6077 225.146C62.6974 223.997 61.9358 222.82 61.1953 221.675L66.1172 218.519ZM68.7574 223.957L67.4174 229.945L63.6077 225.146L65.8961 223.328L68.7574 223.957ZM63.0353 222.699C64.0247 218.28 64.7831 212.485 63.7115 207.742L69.4109 206.461C70.7202 212.254 69.8807 218.938 68.7574 223.957L63.0353 222.699ZM63.7115 207.742C63.031 204.725 61.5729 202.133 58.862 200.73L61.5391 195.518C66.0214 197.837 68.3718 201.857 69.4109 206.461L63.7115 207.742ZM58.862 200.73L56.5453 199.532L57.4532 197.107L60.2003 198.124L58.862 200.73ZM57.4532 197.107C57.8861 195.951 58.5161 194.346 59.1637 192.697L64.6106 194.824C64.1038 196.115 63.5954 197.413 62.9475 199.142L57.4532 197.107ZM59.1637 192.697C60.027 190.496 60.9139 188.239 61.8468 185.587L67.386 187.507C66.552 189.876 65.5674 192.384 64.6106 194.824L59.1637 192.697ZM64.1241 183.666L69.0388 182.815L67.386 187.507L64.6162 186.547L64.1241 183.666ZM65.1087 189.428C59.4355 190.412 46.9417 197.414 37.8723 206.815L33.6377 202.769C43.5319 192.512 57.5852 184.8 64.1241 183.666L65.1087 189.428ZM37.8723 206.815C34.5853 210.223 31.7988 213.903 30.0391 217.654L24.7297 215.207C26.8038 210.787 29.9636 206.578 33.6377 202.769L37.8723 206.815ZM30.0391 217.654C28.36 221.23 27.5937 224.891 28.2114 228.445L22.442 229.428C21.6049 224.612 22.5716 219.804 24.7297 215.207L30.0391 217.654ZM28.2114 228.445C28.7715 231.673 30.5077 234.919 33.7776 238.066L29.7255 242.295C25.4869 238.215 23.2116 233.864 22.442 229.428L28.2114 228.445ZM33.7776 238.066L34.5901 239.483L31.7515 240.181L33.7776 238.066ZM34.5901 239.483C35.3338 242.505 36.0008 245.061 36.7263 247.37L31.1422 249.108C30.3861 246.702 29.6897 244.034 28.9134 240.878L34.5901 239.483ZM36.7263 247.37C37.4203 249.58 38.1775 251.566 39.1276 253.54L33.8408 256.054C32.7803 253.85 31.9296 251.613 31.1422 249.108L36.7263 247.37ZM39.1276 253.54C41.2347 257.917 44.5686 260.582 48.4108 261.815L46.626 267.392C41.3146 265.688 36.7207 262.036 33.8408 256.054L39.1276 253.54ZM48.4108 261.815C52.8935 263.252 58.1091 262.812 62.9813 260.914L65.1111 266.354C59.0198 268.727 52.4109 269.247 46.626 267.392L48.4108 261.815ZM62.9813 260.914L68.0689 258.932L66.907 264.251L64.0462 263.634L62.9813 260.914ZM66.907 264.251C65.5269 270.575 64.6941 277.202 64.4147 284.687L58.5555 284.482C58.8472 276.666 59.7261 269.704 61.1854 263.018L66.907 264.251ZM64.4147 284.687C64.1364 292.174 64.4202 300.574 65.2689 310.441L59.4093 310.92C58.5487 300.913 58.2645 292.293 58.5555 284.482L64.4147 284.687ZM65.2689 310.441C65.4851 312.953 65.7443 315.266 66.0416 317.382L60.25 318.159C59.8815 315.533 59.5977 313.114 59.4093 310.92L65.2689 310.441ZM66.0416 317.382C66.3696 319.714 66.7707 322.1 67.2361 324.525L61.4918 325.623C61.0208 323.171 60.6038 320.682 60.25 318.159L66.0416 317.382ZM67.2361 324.525L67.1109 326.08L64.3638 325.074"
            fill="#000000" />
        <g opacity="1">
            <path
                d="M213.811 149.255L175.238 155.516L140.04 170.925L110.146 189.707L81.698 224.379L65.6266 241.379L50.0871 247.1L45.9769 237.067L53.1634 226.707L54.778 212.096L59.5918 212.29L64.8515 217.081L63.4328 202.198L57.6027 198.292L57.7796 192.62L43.9687 200.423L31.4625 215.16L28.8553 228.331L34.2029 238.879L39.1912 256.797L49.3358 261.594L60.0076 261.071L70.126 255.199L63.3764 289.39L70.126 327.433L62.6959 344.999L38.3596 371.188L42.6864 386.834L54.2148 404.965L75.9533 420.244L87.4837 421.82L100.303 422.254L92.3054 455.047L121.718 467.087L158.363 471.902L170.898 463.716L171.863 441.564L185.846 418.449L186.81 400.149L220.562 402.558L251.902 399.668L220.562 418.449L225.866 441.082L245.634 471.902L264.921 480.089L280.35 473.829L286.618 461.308L318.923 436.749L325.191 442.046L375.817 443.971L385.942 435.785L386.907 421.338L383.532 415.078L381.121 376.072L364.245 342.363L367.137 327.433L377.264 332.73L405.711 359.217L419.693 360.179L435.123 353.919L450.553 342.363L458.267 317.321L503.59 320.21L531.073 309.615L553.253 288.908L569.164 259.051L573.022 223.898L569.646 182.966L560.968 146.368L552.288 134.811L540.235 130.957L519.019 154.073L499.733 160.815L482.857 132.884L465.981 117.474L456.819 111.695L420.176 81.3563L390.763 65.4649L361.351 63.0567L327.118 68.8355L297.224 79.9116L276.491 96.7662L260.098 116.511L243.222 121.326L213.811 149.255Z"
                fill="#feeb50" fill-rule="evenodd" opacity="1" stroke="#1f1917" stroke-linecap="butt"
                stroke-linejoin="miter" stroke-width="0.858719" />
            <g opacity="1">
                <path
                    d="M101.938 236.199C68.8969 274.688 76.2368 321.369 85.394 367.104C80.5071 354.773 75.619 342.442 70.7326 330.11L65.3305 296.197C65.8445 284.636 66.3592 273.075 66.8744 261.514C71.5041 250.467 76.1342 239.421 80.7639 228.373C87.7095 218.097 94.655 207.82 101.601 197.543C112.404 188.551 123.208 179.56 134.011 170.568C145.843 165.687 157.677 160.805 169.509 155.925C183.399 154.126 197.29 152.328 211.179 150.53C198.317 165.173 185.456 179.818 172.594 194.462C141.613 204.498 123.343 211.257 101.938 236.2"
                    fill="#fdf7ba" fill-rule="evenodd" opacity="1" stroke="none" />
                <path
                    d="M257.469 118.924C234.499 141.306 221.952 158.187 207.336 184.394C196.88 203.142 185.151 221.197 174.158 239.681C168.598 249.038 168.072 256.884 166.41 267.673C161.009 261.25 155.607 254.828 150.205 248.405C152.778 240.697 155.35 232.99 157.923 225.283C166.668 209.611 175.415 193.939 184.16 178.27C202.681 160.028 221.201 141.788 239.723 123.546C245.638 122.004 251.555 120.464 257.471 118.922"
                    fill="#fdf7ba" fill-rule="evenodd" opacity="1" stroke="none" />
                <path
                    d="M370.916 63.4219C352.519 70.3112 321.968 72.5801 319.845 93.6695C318.335 108.646 320.975 116.171 330.014 132.017C307.689 108.944 302.168 112.515 259.02 119.685C265.194 110.95 271.368 102.215 277.541 93.4793C288.345 86.8005 299.149 80.1201 309.953 73.4408C323.843 70.3577 337.734 67.2749 351.623 64.1917C358.053 63.9349 364.484 63.6784 370.914 63.4219"
                    fill="#fdf7ba" fill-rule="evenodd" opacity="1" stroke="none" />
            </g>
            <g opacity="1">
                <path
                    d="M421.677 348.687C427.802 352.463 427.671 355.199 426.646 357.787C431.478 355.856 436.308 353.926 441.14 351.997C444.27 347.799 447.399 343.603 450.529 339.404C452.853 333.424 455.176 327.443 457.5 321.462C454.531 319.233 451.563 317.003 448.593 314.773C435.619 316.427 422.643 318.082 409.668 319.736C408.702 322.356 407.735 324.976 406.769 327.594C407.046 331.317 407.322 335.039 407.598 338.761C408.84 340.967 410.083 343.174 411.324 345.379C413.258 346.344 415.19 347.31 417.122 348.274C418.642 348.413 420.159 348.551 421.677 348.687"
                    fill="#edd749" fill-rule="evenodd" opacity="1" stroke="none" />
                <path
                    d="M418.06 282.212C398.548 287.838 398.701 289.388 392.938 308.721C400.545 296.532 406.177 290.381 418.06 282.212"
                    fill="#edd749" fill-rule="evenodd" opacity="1" stroke="none" />
                <path
                    d="M547.804 137.543C544.336 139.143 540.959 139.914 538.791 143.083C534.123 149.904 530.123 155.642 522.404 160.431C518.516 162.844 514.495 164.406 510.372 165.689C506.952 166.751 504.899 165.802 501.988 167.891C503.715 168.192 505.441 168.494 507.168 168.797L518.59 168.797C523.284 165.901 527.978 163.006 532.671 160.111C535.433 157.216 538.192 154.321 540.953 151.426C543.236 146.798 545.52 142.169 547.804 137.543"
                    fill="#edd749" fill-rule="evenodd" opacity="1" stroke="none" />
                <path
                    d="M236.994 180.777C229.317 201.755 222.61 219.739 210.981 238.732C225.882 222.698 234.915 209.07 243.449 190.941C246.764 183.899 247.39 175.636 256.624 178.709C257.039 185.74 258.528 192.77 258.942 199.802C263.932 164.081 278 149.144 310.705 135.28C301.456 136.384 292.207 137.486 282.96 138.589C274.263 140.52 265.567 142.449 256.871 144.379C252.591 150.583 248.312 156.787 244.033 162.99C241.686 168.919 239.34 174.847 236.993 180.774"
                    fill="#edd749" fill-rule="evenodd" opacity="1" stroke="none" />
                <path
                    d="M300.359 179.943C307.412 213.098 317.567 244.918 321.978 278.596C324.843 300.481 325.156 310.995 314.131 329.877C302.082 329.099 294.602 330.457 282.947 334.27C236.551 349.461 209.942 371.795 178.679 326.794C188.658 331.49 198.639 336.187 208.618 340.886L229.961 336.696C242.523 329.389 255.084 322.083 267.645 314.776C277.446 312.845 287.247 310.916 297.046 308.986C300.222 295.751 303.396 282.516 306.571 269.281C304.224 251.771 301.877 234.263 299.531 216.753C299.256 208.482 298.98 200.21 298.703 191.938C299.256 187.939 299.808 183.942 300.359 179.943"
                    fill="#edd749" fill-rule="evenodd" opacity="1" stroke="none" />
                <path
                    d="M380.257 385.085C376.36 412.021 389.231 426.501 383.902 433.941C382.393 436.047 380.348 439.721 378.065 440.729C369.909 444.327 358.698 440.056 357.895 442.163L330.978 442.163C327.39 440.644 323.801 439.128 320.211 437.613C325.733 431.133 331.255 424.653 336.776 418.174C342.159 406.455 347.543 394.736 352.926 383.019C356.378 371.163 359.829 359.307 363.278 347.45L368.662 347.45C372.528 359.996 376.392 372.541 380.257 385.087"
                    fill="#edd749" fill-rule="evenodd" opacity="1" stroke="none" />
                <path
                    d="M335.022 306.787C337.208 319.018 341.005 321.924 346.765 333.762C342.931 353.076 336.772 376.043 329.36 393.087C326.234 400.274 323.711 404.236 318.2 409.789C308.896 419.173 299.49 427.348 288.938 435.481C281.343 441.328 276.042 438.395 266.67 437.07C262.685 444.286 261.584 448.294 254.249 451.958C242.967 457.591 232.872 445.451 224.017 438.31C230.409 448.282 236.802 458.254 243.193 468.226C247.611 472.361 252.028 476.497 256.445 480.634C260.171 481.184 263.899 481.736 267.626 482.289C272.595 479.255 277.564 476.221 282.533 473.189C285.156 468.226 287.779 463.263 290.401 458.3C295.923 454.164 301.445 450.029 306.965 445.892C313.73 440.102 320.494 434.311 327.257 428.521C331.537 422.454 335.815 416.389 340.095 410.323C343.958 403.154 347.824 395.985 351.689 388.816C356.658 373.927 361.627 359.038 366.598 344.149C367.011 338.495 367.426 332.843 367.839 327.192C361.627 324.433 355.416 321.676 349.204 318.919C344.649 314.645 339.577 311.062 335.022 306.789"
                    fill="#edd749" fill-rule="evenodd" opacity="1" stroke="none" />
                <path
                    d="M186.471 392.942C207.372 392.942 229.445 391.784 248.585 383.016C254.002 374.899 259.349 368.27 265.978 361.096C259.945 372.476 258.053 378.908 256.453 391.702C254.382 394.733 252.312 397.767 250.241 400.8C234.505 401.215 218.769 401.627 203.034 402.041C197.926 401.489 192.819 400.938 187.712 400.387C187.16 399.835 186.608 399.283 186.056 398.733C186.194 396.802 186.333 394.872 186.47 392.942"
                    fill="#edd749" fill-rule="evenodd" opacity="1" stroke="none" />
                <path
                    d="M183.573 378.467C183.033 373.574 182.492 368.679 181.951 363.783C178.38 385.25 179.239 399.635 169.347 418.864C161.957 427.415 152.86 435.196 142.44 439.36C143.319 444.632 143.582 447.926 143.072 451.792C141.236 465.696 113.386 459.554 101.93 459C120.31 463.727 138.69 468.452 157.068 473.179C161.209 471.524 165.35 469.87 169.491 468.216C170.872 460.22 172.252 452.223 173.633 444.227C177.497 437.059 181.363 429.889 185.227 422.722C185.917 418.309 186.608 413.897 187.298 409.486C186.055 399.146 184.814 388.806 183.571 378.466"
                    fill="#edd749" fill-rule="evenodd" opacity="1" stroke="none" />
                <path
                    d="M152.517 257.28C151.939 267.718 151.264 272.07 155.872 281.289C161.731 293.007 168.927 304.015 175.293 315.596C175.983 307.875 176.672 300.155 177.363 292.435C169.081 280.716 160.799 268.998 152.517 257.28"
                    fill="#edd749" fill-rule="evenodd" opacity="1" stroke="none" />
                <path
                    d="M67.5068 336.134C65.7141 339.945 63.9214 343.757 62.1286 347.567C67.0628 364.165 71.4481 374.679 80.8434 389.181C79.2073 395.057 77.9826 397.627 74.2178 402.416C65.9494 401.145 58.6076 400.778 50.2298 400.803C59.4797 407.972 68.7283 415.14 77.9758 422.31C82.53 421.483 87.0858 420.656 91.6412 419.829C96.1957 415.279 100.751 410.73 105.307 406.18C98.8177 396.116 92.3308 386.052 85.844 375.988C79.7312 362.704 73.6184 349.419 67.5068 336.136"
                    fill="#edd749" fill-rule="evenodd" opacity="1" stroke="none" />
                <path
                    d="M547.844 132.025C553.476 157.336 560.74 180.69 560.067 206.61C559.239 238.412 553.033 278.584 523.531 297.763C490.491 319.24 451.706 309.082 415.458 299.88C430.228 305.946 444.998 312.01 459.767 318.077C473.571 318.767 487.375 319.456 501.179 320.146C510.566 317.387 519.952 314.63 529.338 311.874C536.654 305.807 543.971 299.742 551.286 293.676C556.807 282.096 562.328 270.514 567.85 258.934C569.921 245.56 571.992 232.188 574.061 218.817C572.405 205.718 570.749 192.622 569.092 179.525C566.056 166.566 563.018 153.606 559.982 140.648C555.937 137.774 551.892 134.901 547.846 132.027"
                    fill="#edd749" fill-rule="evenodd" opacity="1" stroke="none" />
                <path
                    d="M54.7987 207.456C39.799 217.206 33.908 221.487 35.552 239.557C37.0463 244.969 38.5413 250.382 40.0367 255.794C42.1538 257.226 44.272 258.656 46.3895 260.088C49.0059 260.958 51.6223 261.829 54.2386 262.7C58.9721 261.58 63.7059 260.46 68.4406 259.34C70.8697 251.812 73.2992 244.285 75.7284 236.758C69.0006 240.055 62.2737 243.352 55.5468 246.649L50.8749 246.649C49.1307 243.974 47.3865 241.299 45.6422 238.624C47.7605 235.514 49.878 232.403 51.9963 229.293C53.1173 223.382 54.2386 217.472 55.3596 211.563C56.7918 211.998 58.2252 212.433 59.6574 212.868C61.4016 214.238 63.1458 215.606 64.8901 216.974C64.6408 213.864 64.392 210.753 64.142 207.643C62.9586 205.652 61.7756 203.661 60.5915 201.67C59.4081 200.674 58.2252 199.68 57.041 198.684C56.2937 201.609 55.5468 204.533 54.7987 207.456"
                    fill="#edd749" fill-rule="evenodd" opacity="1" stroke="none" />
                <path
                    d="M391.308 65.0894C404.619 77.4347 420.958 88.1662 431.607 103.254C435.727 109.096 440.306 112.083 431.537 120.332C440.802 117.688 444.244 117.975 451.661 118.873C465.153 120.504 477.799 139.659 478.606 153.387C478.447 154.67 474.858 157.584 464.426 160.46C464.219 160.861 458.539 159.684 458.68 160.068C459.764 163.031 461.213 163.484 463.424 164.871C463.904 168.166 464.213 173.247 466.46 176.849C473.025 176.734 479.439 177.448 485.868 178.72C488.031 182.303 487.704 185.886 487.524 189.472C490.008 189.06 492.493 188.645 494.978 188.232C494.287 182.578 493.597 176.927 492.908 171.275C495.115 167.553 497.324 163.83 499.533 160.108C496.357 152.939 493.182 145.771 490.008 138.601C483.934 132.811 477.861 127.021 471.787 121.23C471.204 121.202 470.617 121.171 470.033 121.143C463.202 116.956 456.373 112.77 449.544 108.584C438.403 99.4809 427.263 90.3767 416.122 81.2734C407.851 75.8784 399.58 70.4835 391.309 65.0894"
                    fill="#edd749" fill-rule="evenodd" opacity="1" stroke="none" />
                <path
                    d="M413.727 166.961C413.025 168.188 411.964 170.149 410.606 171.506C416.151 176.744 418.886 180.252 420.863 187.661C414.594 190.769 408.327 193.877 402.059 196.985C396.755 202.063 391.451 207.142 386.148 212.219C379.167 208.466 377.428 205.584 374.05 198.429C370.116 199.469 366.388 200.471 363.14 199.28C365.201 199.296 366.468 198.781 368.526 197.51C371.902 194.007 375.277 190.505 378.651 187.003C384.613 182.494 390.575 177.985 396.535 173.476C400.437 172.206 404.338 170.936 408.239 169.667C409.729 169.055 412.236 167.575 413.727 166.961"
                    fill="#edd749" fill-rule="evenodd" opacity="1" stroke="none" />
                <path
                    d="M431.058 185.66C411.116 196.384 392.016 207.17 381.82 227.537C381.82 201.685 407.809 190.305 431.058 185.66"
                    fill="#edd749" fill-rule="evenodd" opacity="1" stroke="none" />
                <path
                    d="M377.833 134.804C363.026 144.887 352.555 165.236 353.871 185.069C349.047 167.897 350.756 151.67 365.566 139.81C368.066 138.597 370.564 137.384 373.062 136.171C374.653 135.716 376.243 135.261 377.833 134.805"
                    fill="#edd749" fill-rule="evenodd" opacity="1" stroke="none" />
            </g>
            <path
                d="M406.135 287.89C409.195 286.226 414.751 283.939 417.811 282.275C414.663 282.806 409.019 283.962 405.871 284.492C397.462 285.91 396.473 287.929 395.168 296.198C394.552 300.092 393.705 304.923 393.09 308.818C394.738 304.415 396.721 299.296 398.643 295.097C400.675 290.655 401.82 290.236 406.135 287.89ZM250.107 74.9232C256.716 65.0231 260.521 61.8026 270.69 55.5306C256.881 58.8528 254.249 61.4063 250.107 74.9232ZM247.933 96.734C259.497 73.5154 268.253 64.9659 292.465 53.5635C265.08 60.2673 257.03 65.0346 247.933 96.734ZM0.288857 217.587C2.82651 205.961 5.19165 201.575 12.3689 192.031C0.726109 200.155-0.791553 203.492 0.288857 217.587ZM259.496 412.176C259.146 409.355 258.794 406.531 258.441 403.71C257.807 398.598 257.832 394.444 258.24 389.299C258.633 384.319 259.024 379.34 259.416 374.359C257.963 379.421 255.061 384.483 253.61 389.545C253.029 391.57 252.548 393.209 252.273 394.723C230.604 399.145 209.093 399.422 187.417 395.56C186.034 387.546 184.351 379.195 182.939 373.209C182.511 379.914 182.787 398.45 182.752 408.828C182.725 416.87 182.386 419.623 178.235 426.463C174.347 432.867 172.701 434.32 167.26 445.139C167.712 451.966 167.721 456.481 165.904 462.961C162.883 473.732 132.416 465.386 124.377 463.188C114.48 460.483 94.0162 456.46 99.1623 443.281C103.692 431.683 106.562 419.455 108.775 403.223C90.6406 377.133 73.775 341.378 70.5398 309.696C68.0272 285.097 69.5349 269.956 74.8646 254.91C83.3095 231.07 95.1229 210.433 114.081 193.814C139.652 171.405 163.558 162.403 200.983 156.714C191.983 166.776 183.078 177.417 173.372 188.827C163.547 200.379 157.708 212.045 151.47 224.679C142.851 242.129 143.036 248.769 154.462 264.087C164.307 277.289 169.622 283.233 173.921 296.149C170.37 303.458 169.08 309.634 167.886 319.615C179.941 332.775 188.899 341.794 200.604 344.573C212.085 347.298 221.674 346.769 231.944 341.526C254.758 329.876 275.868 314.836 301.602 314.214C313.508 284.98 312.305 260.554 306.588 232.271C302.685 212.955 301.12 194.666 299.906 174.971C295.079 195.252 294.174 213.086 297.753 233.288C302.071 257.633 305.427 284.529 293.417 305.924C270.149 307.704 250.205 321.843 229.233 332.691C220.803 337.053 212.027 337.477 202.695 334.92C194.033 332.544 188.189 326.821 178.858 316.073C178.712 305.282 181.15 300.301 186.111 290.529C194.083 274.835 202.883 260.226 212.538 244.782C200.714 259.037 189.512 270.945 180.207 285.277C176.649 275.154 171.564 270.016 163.138 258.619C154.908 247.488 154.046 242.613 160.199 229.732C166.387 216.787 171.634 205.408 182.165 194.052C200.361 174.426 217.03 152.584 236.929 133.258C247.733 122.764 252.119 123.126 266.451 120.957C279.403 118.996 292.051 116.52 305.261 113.455C292.485 114.644 280.135 115.082 267.698 115.39C267.568 115.394 267.441 115.398 267.312 115.398C279.549 99.7894 286.651 91.0921 306.526 82.4676C355.458 61.2416 386.551 58.9461 424.989 91.2172C434.951 99.5809 443.652 107.701 453.753 114.917C450.091 115.229 446.935 115.885 442.761 117.523C447.841 116.556 453.708 117.515 458.98 118.477C460.461 119.436 461.981 120.371 463.54 121.289C470.67 125.485 474.717 127.802 479.539 134.514C484.637 141.606 488.885 148.692 492.63 156.503C490.176 155.628 488.119 154.888 486.285 154.343C484.935 153.725 483.466 153.317 481.909 153.167C478.825 152.871 475.874 153.628 473.415 155.14C473.317 155.186 473.218 155.231 473.118 155.279C469.174 157.197 463.064 159.383 458.975 160.046C461.059 160.765 465.672 161.034 467.848 160.175C468.14 160.059 468.436 159.971 468.74 159.898C467.759 161.566 467.118 163.461 466.921 165.507C466.66 168.22 467.212 170.824 468.38 173.085L468.392 173.109C468.762 173.976 469.274 174.777 469.839 175.354C467.969 176.04 466.062 176.827 464.096 177.68C473.214 176.292 481.435 176.054 490.336 177.225C490.923 180.027 491.515 182.996 492.062 186.017C490.959 186.104 489.859 186.188 488.757 186.274C488.668 186.282 488.578 186.29 488.489 186.298C484.278 182.937 479.587 183.501 473.177 184.962C453.686 189.402 458.267 200.326 449.299 216.785C458.609 205.417 457.92 193.524 473.092 189.935C476.628 189.099 479.035 188.054 481.428 188.413C477.12 190.577 473.394 194.163 471.917 198.328C467.752 210.074 470.338 219.971 465.763 230.941C471.431 221.134 471.772 211.563 476.84 201.245C478.659 197.538 485.414 191.606 489.561 191.514C490.699 191.49 491.835 191.466 492.974 191.441C493.973 197.97 494.58 204.452 494.193 209.829C493.487 219.639 490.934 234.202 489.407 239.774C494.54 233.183 496.878 219.224 499.133 209.399C501.481 199.166 500.888 186.888 498.833 175.896C496.013 160.814 511.565 163.267 520.593 156.16C527.23 150.933 531.798 142.59 537.884 136.679C543.92 130.818 553.421 139.431 555.794 145.161C566.089 170.034 570.779 209.167 568.06 234.242C565.009 262.377 551.401 293.094 526.553 306.946C494.879 324.602 457.531 313.815 426.064 303.226C419.348 300.966 414.677 297.672 408.773 293.958C410.38 301.187 411.111 308.839 408.972 316.059C405.577 327.514 400.094 346.257 415.668 349.714C421.594 351.03 424.282 350.84 432.65 346.527C425.877 348.056 422.463 347.682 417.808 346.823C413.59 346.047 411.353 343.369 410.175 340.214C411.648 341.277 414.052 341.856 418.159 342.844C429.704 345.622 440.705 340.073 442.857 332.076C444.112 327.405 443.898 324.951 446.556 318.586C448.943 319.321 451.415 319.994 453.947 320.605C452.519 325.261 451.088 329.922 449.658 334.578C445.947 346.667 431.492 356.415 418.727 356.191C406.927 355.982 399.446 348.599 391.301 341.362C385.688 336.374 380.288 331.603 374.934 326.877C360.249 322.249 348.478 316.841 334.85 306.763C344.549 318.149 351.13 324.451 364.657 330.116C362.689 350.158 355.715 364.77 349.769 383.95C347.079 392.624 325.834 427.375 319.946 430.765C315.748 433.18 289.454 455.301 284.506 458.218C280.822 463.106 277.589 469.857 272.051 472.781C255.173 481.693 244.328 464.627 235.245 450.212C231.109 443.646 219.627 424.733 229.638 419.434C239.102 414.427 244.403 410.85 254.059 404.519C255.478 407.101 257.914 409.593 259.5 412.174L259.496 412.176ZM318.167 442.734C309.623 449.628 295.254 461.832 292.467 463.36C287.419 470.886 286.795 475.543 278.709 479.914C254.635 492.925 241.859 477.836 227.61 455.902C220.82 445.451 205.973 421.59 221.728 413.502C228.366 410.094 233.397 407.54 238.416 404.62C221.888 406.669 205.667 406.693 188.799 404.159C189.098 406.191 189.358 408.126 189.569 409.899C190.665 419.104 191.025 421.926 186.018 429.342C182.369 434.751 180.963 436.316 176.555 446.142C177.357 454.13 177.009 458.626 174.752 466.992C169.736 485.584 134.974 475.393 120.807 471.567C103.763 466.964 79.4112 462.677 89.4024 440.792C91.7441 435.665 93.5829 430.421 94.9667 425.419C80.0639 432.007 59.3537 418.033 49.4885 408.156C40.1066 398.761 35.0102 387.852 33.2346 377.266C31.7225 368.256 33.107 368.3 39.5446 361.93C45.4339 356.108 51.3213 350.278 57.2091 344.459C59.5866 337.995 61.9684 331.536 64.3447 325.077C63.4185 320.251 62.73 315.438 62.3198 310.671C60.6094 290.795 61.1842 276.642 64.0271 263.629C53.6575 267.671 41.7586 265.778 36.4663 254.786C34.4537 250.608 33.2549 246.351 31.7348 240.172C8.60301 217.912 51.9514 188.732 64.5971 186.536C63.1514 190.639 61.5674 194.393 60.1733 198.114C68.7494 202.548 67.698 215.183 65.8771 223.317C62.7921 219.429 61.0872 214.344 56.5497 214.126C55.8851 223.325 55.9999 233.49 48.8067 238.891C50.9362 244.576 50.8245 244.581 56.8764 242.257C65.4716 238.952 71.9437 231.589 78.4544 224.404C85.4664 210.762 94.4547 198.627 106.82 187.678C137.206 160.772 165.928 151.969 212.174 144.607C218.329 138.191 224.691 132.001 231.519 125.981C240.77 117.828 246.777 116.135 255.526 115.679C270.005 96.3374 281.396 82.8677 304.999 72.9453C354.477 52.1454 388.582 51.1425 428.293 83.846C441.416 94.6517 452.608 106.039 467.031 115.06C474.33 119.625 479.546 122.906 485.08 129.488C492.039 137.77 497.722 146.053 501.678 156.714C506.789 154.613 512.618 152.633 517.325 148.616C523.401 143.43 527.267 134.75 532.896 129.052C540.366 121.491 557.408 130.619 561.181 137.832C574.015 162.363 579.266 207.574 576.538 234.46C573.167 267.694 559.449 299.112 530.134 314.738C510.2 325.361 483.447 326.35 460.551 322.028C459.067 326.904 457.589 331.78 456.105 336.656C451.653 351.268 434.275 363.212 419.094 363.928C404.518 364.615 396.617 357.102 387.057 347.906C382.042 343.08 377.023 338.258 372.008 333.432C371.716 336.719 371.286 339.871 370.744 342.922C374.692 350.709 376.588 357.554 379.968 365.582C383.686 374.422 385.496 380.224 385.751 389.685C385.975 398.084 386.201 406.485 386.426 414.883C390.177 421.539 390.505 423.158 389.959 430.775C388.804 446.827 379.952 448.359 365.199 448.266C360.284 448.235 341.731 448.35 337.002 448.009C327.601 447.33 321.404 446.613 318.165 442.735L318.167 442.734ZM367.911 355.166C364.943 365.751 360.954 375.744 357.312 387.197C353.866 398.038 336.192 429.522 325.788 437.152C327.813 438.658 331.53 439.248 338.151 439.818C342.835 440.222 361.302 440.308 365.939 440.388C376.147 440.565 380.021 439.799 381.054 428.19C381.558 422.506 381.113 421.444 378.267 416.462C378.014 407.576 377.762 398.688 377.512 389.802C377.274 381.378 375.655 376.525 372.339 368.674C370.354 363.976 369.276 359.59 367.911 355.168L367.911 355.166ZM56.9687 209.751C59.2602 209.491 60.6777 210.692 62.4502 212.461C62.1223 208.234 61.3404 205.1 58.3691 203.372C58.1608 204.06 57.9648 204.746 57.78 205.444C57.4202 206.805 57.1634 208.25 56.9687 209.751ZM71.3678 240.291C69.7181 244.554 68.1877 248.948 66.7468 253.487C66.5079 254.238 66.2789 254.993 66.0559 255.745C57.3391 259.437 45.8776 261.784 41.4899 252.634C39.3593 248.194 38.1569 243.836 36.603 238.223C22.2481 223.37 43.7064 203.762 55.3945 196.728C53.7032 200.359 52.5019 203.108 51.6819 205.939C48.1278 218.205 53.2906 229.153 42.1434 238.046C47.3821 248.604 47.1408 252.814 59.329 247.935C64.0311 246.054 67.9083 243.413 71.3678 240.291L71.3678 240.291ZM68.0089 340.246C74.6161 363.069 85.8682 385.493 98.3426 404.347C98.3414 404.456 98.3403 404.564 98.3395 404.675C97.5584 407.916 96.6537 411.075 94.7584 413.61C85.8424 425.524 63.1613 408.036 56.5966 401.342C49.4201 394.023 44.6167 385.356 43.4731 377.228C42.6415 371.298 43.4484 371.155 47.5904 366.96C53.1725 361.317 58.7602 355.668 64.3399 350.026C65.5614 346.764 66.7873 343.506 68.0089 340.246L68.0089 340.246ZM490.235 157.063C491.507 158.319 492.534 159.814 493.242 161.468C493.627 161.115 494.039 160.781 494.471 160.464C493.948 159.288 493.416 158.128 492.873 156.986C491.969 157.006 491.092 157.031 490.235 157.063ZM381.018 198.113C379.855 195.678 379.299 193.109 379.278 190.571C374.999 193.985 370.346 197.222 365.518 199.092C372.184 193.147 381.239 179.125 387.8 174.699C395.246 169.674 405.35 170.652 414.031 166.641C411.068 169.331 407.27 171.498 403.402 173.561C407.663 175.118 411.344 178.269 413.444 182.667C414.33 184.522 414.859 186.459 415.074 188.397C420.906 186.483 426.633 185.578 431.47 185.647C414.167 190.499 395.761 201.845 383.07 216.87C384.496 212.951 386.488 209.415 388.888 206.258C385.562 204.521 382.754 201.745 381.019 198.113L381.018 198.113ZM300.774 135.593C291.219 139.317 282.503 142.111 273.188 144.448C264.689 155.605 259.511 161.385 257.555 176.339C255.255 161.628 254.776 158.897 261.331 147.917C259.431 148.881 257.665 150.207 255.133 152.369C245.974 160.19 234.036 190.926 229.263 201.915C232.293 188.688 241.77 155.628 251.532 145.993C257.951 139.654 259.406 139.8 268.458 138.945C279.239 137.924 289.999 136.811 300.774 135.594L300.774 135.593ZM500.217 167.664C507.968 168.396 512.4 169.591 519.34 166.162C532.278 159.768 541.797 149.329 547.97 136.844C544.194 151.739 536.595 164.397 520.832 170.011C513.091 172.766 508.1 169.921 500.217 167.664ZM351.452 169.119C354.372 156.202 359.557 143.756 379.644 134.127C353.021 140.785 348.029 151.952 351.452 169.119ZM6.24503 238.682C8.52907 212.85 13.5591 201.699 31.9356 182.26C8.88603 198.481 3.13418 205.852 6.24503 238.682"
                fill="#000000" fill-rule="evenodd" opacity="1" stroke="none" />
            <path
                d="M384.471 202.295C382.692 198.579 384.282 194.101 388.012 192.329C391.743 190.554 396.235 192.14 398.015 195.858C398.183 196.21 398.318 196.573 398.427 196.936C394.865 199.575 391.599 202.686 388.862 206.29C387.016 205.55 385.385 204.203 384.471 202.295"
                fill="#edd749" fill-rule="evenodd" opacity="1" stroke="none" />
            <path
                d="M467.827 170.098C468.125 167.019 470.753 164.749 473.835 165.046C476.917 165.344 479.192 168.096 478.895 171.175C478.832 171.83 478.655 172.444 478.389 173.01C475.567 173.49 472.746 174.317 469.84 175.384C468.624 174.141 467.656 171.873 467.827 170.098"
                fill="#edd749" fill-rule="evenodd" opacity="1" stroke="none" />
        </g>
    </g>
</svg>
