<svg xmlns="http://www.w3.org/2000/svg" viewBox="0 -15 377.055 98.04">
    <g fill="#3178c6" opacity="1">
        <path
            d="M6.64382 2.84217e-14L61.3889 2.84217e-14C65.0582 2.84217e-14 68.0327 2.97486 68.0327 6.64453L68.0327 61.3955C68.0327 65.0651 65.0582 68.04 61.3889 68.04L6.64382 68.04C2.97454 68.04 0 65.0651 0 61.3955L0 6.64453C0 2.97486 2.97454 2.84217e-14 6.64382 2.84217e-14Z"
            fill-rule="nonzero" opacity="1" stroke="none" />
        <path
            d="M6.64382 2.84217e-14L61.3889 2.84217e-14C65.0582 2.84217e-14 68.0327 2.97486 68.0327 6.64453L68.0327 61.3955C68.0327 65.0651 65.0582 68.04 61.3889 68.04L6.64382 68.04C2.97454 68.04 0 65.0651 0 61.3955L0 6.64453C0 2.97486 2.97454 2.84217e-14 6.64382 2.84217e-14Z"
            fill-rule="nonzero" opacity="1" stroke="none" />
        <path
            d="M42.1137 54.1428L42.1137 60.7955C43.1951 61.3499 44.474 61.7656 45.9505 62.0428C47.427 62.32 48.9832 62.4586 50.6191 62.4586C52.2135 62.4586 53.728 62.3062 55.163 62.0012C56.5979 61.6963 57.8561 61.1939 58.9375 60.4939C60.0188 59.7941 60.8749 58.8793 61.5057 57.7497C62.1365 56.6202 62.4519 55.2239 62.4519 53.5608C62.4519 52.3549 62.2717 51.2982 61.9112 50.3904C61.5507 49.4826 61.0309 48.6753 60.3515 47.9685C59.6723 47.2616 58.8577 46.6275 57.9081 46.0661C56.9584 45.5048 55.8874 44.9747 54.6951 44.4758C53.8217 44.1154 53.0384 43.7655 52.3452 43.426C51.652 43.0863 51.0628 42.7399 50.5775 42.3865C50.0923 42.033 49.718 41.6588 49.4546 41.2639C49.1912 40.8688 49.0594 40.4219 49.0594 39.9229C49.0594 39.4656 49.1773 39.0532 49.413 38.6859C49.6487 38.3186 49.9815 38.0034 50.4112 37.74C50.841 37.4768 51.3678 37.2722 51.9916 37.1267C52.6156 36.9812 53.3087 36.9085 54.0713 36.9085C54.6258 36.9085 55.2115 36.9501 55.8284 37.0332C56.4454 37.1164 57.0658 37.2446 57.6897 37.4177C58.3136 37.591 58.92 37.8094 59.5094 38.0726C60.0985 38.336 60.6427 38.6409 61.1417 38.9875L61.1417 32.7714C60.1298 32.3833 59.0241 32.0957 57.8249 31.9086C56.6257 31.7215 55.2496 31.628 53.6969 31.628C52.1164 31.628 50.6191 31.7978 49.2051 32.1373C47.791 32.4769 46.5467 33.007 45.4722 33.7276C44.3977 34.4484 43.5486 35.3666 42.9248 36.4823C42.3009 37.5979 41.9889 38.9319 41.9889 40.4842C41.9889 42.4661 42.5608 44.157 43.7046 45.5569C44.8483 46.9566 46.5847 48.1416 48.9139 49.1119C49.8289 49.4861 50.6816 49.8533 51.4718 50.2137C52.262 50.5741 52.9449 50.9483 53.5201 51.3363C54.0954 51.7244 54.5495 52.1471 54.8823 52.6045C55.2151 53.0618 55.3814 53.5815 55.3814 54.1637C55.3814 54.5933 55.2774 54.9917 55.0694 55.359C54.8615 55.7264 54.546 56.045 54.1232 56.3153C53.7004 56.5856 53.1735 56.7969 52.5428 56.9493C51.9119 57.1019 51.1738 57.1781 50.328 57.1781C48.8862 57.1781 47.4583 56.9252 46.0441 56.4192C44.63 55.9135 43.3198 55.1547 42.1137 54.1428ZM30.931 37.7518L39.4643 37.7518L39.4643 32.2924L15.6794 32.2924L15.6794 37.7518L24.171 37.7518L24.171 62.0599L30.931 62.0599L30.931 37.7518Z"
            fill="#ffffff" fill-rule="evenodd" opacity="1" stroke="none" />

        <path
            d="M128.972 7.38502L114.423 7.38502L114.423 51.4702L108.514 51.4702L108.514 7.38502L93.9953 7.38502L93.9953 2.15193L128.972 2.15193L128.972 7.38502Z"
            fill-rule="nonzero" opacity="1" stroke="none" />
        <path
            d="M151.929 16.2568L135.371 57.1043C132.421 64.3915 128.272 68.04 122.922 68.04C121.422 68.04 120.173 67.8933 119.163 67.5901L119.163 62.533C120.402 62.9438 121.542 63.1493 122.572 63.1493C125.482 63.1493 127.662 61.4571 129.112 58.0629L131.991 51.3919L117.933 16.2568L124.332 16.2568L134.071 43.3515C134.191 43.6939 134.431 44.5938 134.811 46.0317L135.021 46.0317C135.141 45.4839 135.371 44.6133 135.721 43.42L145.95 16.2568L151.929 16.2568Z"
            fill-rule="nonzero" opacity="1" stroke="none" />
        <path
            d="M161.358 46.3838L161.218 46.3838L161.218 67.6683L155.449 67.6683L155.449 16.2568L161.218 16.2568L161.218 22.4485L161.358 22.4485C164.198 17.773 168.337 15.4352 173.807 15.4352C178.446 15.4352 182.066 17.01 184.666 20.1596C187.265 23.3093 188.565 27.5349 188.565 32.8364C188.565 38.7249 187.105 43.4494 184.176 46.9902C181.246 50.5311 177.236 52.3016 172.157 52.3016C167.487 52.2918 163.888 50.3257 161.358 46.3838ZM161.218 32.1811L161.218 37.1012C161.218 40.016 162.188 42.481 164.118 44.5155C166.048 46.5501 168.507 47.5576 171.487 47.5576C174.977 47.5576 177.716 46.2469 179.696 43.6352C181.676 41.0235 182.666 37.3848 182.666 32.7386C182.666 28.8163 181.736 25.7449 179.886 23.5245C178.036 21.3041 175.527 20.189 172.367 20.189C169.017 20.189 166.318 21.3334 164.278 23.6125C162.238 25.8818 161.218 28.738 161.218 32.1811Z"
            fill-rule="nonzero" opacity="1" stroke="none" />
        <path
            d="M223.541 35.272L198.124 35.272C198.214 39.1944 199.294 42.2169 201.354 44.3492C203.414 46.4816 206.253 47.5478 209.863 47.5478C213.912 47.5478 217.642 46.2371 221.042 43.6254L221.042 48.9172C217.882 51.1669 213.692 52.2918 208.493 52.2918C203.404 52.2918 199.414 50.6974 196.504 47.4989C193.595 44.3003 192.145 39.8009 192.145 34.0004C192.145 28.5228 193.735 24.0527 196.904 20.6096C200.084 17.1567 204.024 15.4352 208.733 15.4352C213.443 15.4352 217.082 16.922 219.662 19.9053C222.242 22.8887 223.531 27.0262 223.531 32.318L223.531 35.272L223.541 35.272ZM217.632 30.4889C217.612 27.2317 216.802 24.6982 215.222 22.8887C213.643 21.0791 211.443 20.1694 208.633 20.1694C205.913 20.1694 203.604 21.1182 201.704 23.0256C199.804 24.933 198.634 27.4175 198.184 30.4889L217.632 30.4889Z"
            fill-rule="nonzero" opacity="1" stroke="none" />
        <path
            d="M228.581 49.4747L228.581 42.6668C229.311 43.3515 230.181 43.9776 231.201 44.5253C232.221 45.0731 233.29 45.5426 234.42 45.9143C235.55 46.286 236.68 46.5892 237.81 46.7946C238.95 47 240 47.1076 240.96 47.1076C244.279 47.1076 246.769 46.4523 248.409 45.1318C250.049 43.8113 250.869 41.9137 250.869 39.4389C250.869 38.1087 250.599 36.9544 250.049 35.9665C249.499 34.9786 248.749 34.0787 247.779 33.2668C246.809 32.455 245.669 31.6724 244.349 30.9291C243.029 30.1857 241.61 29.4031 240.09 28.5717C238.48 27.7012 236.98 26.8208 235.59 25.9209C234.2 25.0308 232.98 24.0429 231.961 22.9669C230.931 21.891 230.121 20.6683 229.531 19.3086C228.941 17.949 228.651 16.3449 228.651 14.5157C228.651 12.266 229.111 10.3195 230.031 8.65661C230.951 6.99376 232.161 5.62435 233.67 4.54839C235.17 3.47243 236.88 2.67035 238.8 2.14214C240.72 1.61394 242.679 1.34984 244.669 1.34984C249.219 1.34984 252.528 1.93673 254.608 3.10073L254.608 9.59564C251.888 7.58065 248.389 6.57316 244.119 6.57316C242.939 6.57316 241.759 6.7101 240.58 6.96442C239.4 7.22852 238.35 7.6589 237.43 8.25557C236.51 8.85224 235.76 9.6152 235.18 10.564C234.6 11.503 234.31 12.6475 234.31 14.0071C234.31 15.2689 234.53 16.3546 234.97 17.2741C235.41 18.1936 236.06 19.025 236.92 19.7879C237.78 20.5411 238.82 21.2747 240.06 21.9888C241.29 22.7028 242.709 23.4756 244.319 24.3265C245.969 25.1971 247.539 26.1166 249.019 27.0751C250.499 28.0337 251.798 29.0999 252.908 30.2737C254.018 31.4475 254.908 32.7386 255.558 34.1569C256.208 35.5753 256.538 37.2088 256.538 39.0379C256.538 41.4637 256.088 43.5276 255.208 45.21C254.318 46.8924 253.118 48.2618 251.608 49.3182C250.099 50.3746 248.359 51.1376 246.379 51.6071C244.409 52.0766 242.329 52.3114 240.14 52.3114C239.41 52.3114 238.51 52.2527 237.44 52.1255C236.37 51.9984 235.27 51.8125 234.16 51.5778C233.04 51.3332 231.991 51.0398 230.991 50.6876C229.981 50.3062 229.191 49.9051 228.581 49.4747Z"
            fill-rule="nonzero" opacity="1" stroke="none" />
        <path
            d="M287.225 49.8562C284.455 51.4799 281.175 52.3016 277.386 52.3016C272.256 52.3016 268.107 50.6681 264.957 47.4011C261.807 44.1341 260.228 39.8987 260.228 34.6949C260.228 28.8945 261.927 24.2385 265.327 20.7172C268.727 17.1958 273.256 15.4352 278.936 15.4352C282.095 15.4352 284.885 16.0123 287.305 17.1567L287.305 22.9376C284.635 21.0987 281.775 20.189 278.726 20.189C275.046 20.189 272.026 21.4801 269.677 24.0624C267.327 26.6448 266.147 30.0292 266.147 34.2254C266.147 38.3532 267.257 41.6104 269.467 43.9873C271.676 46.3642 274.656 47.5674 278.376 47.5674C281.515 47.5674 284.465 46.5501 287.235 44.5058L287.235 49.8562L287.225 49.8562Z"
            fill-rule="nonzero" opacity="1" stroke="none" />
        <path
            d="M309.532 21.9594C308.522 21.2063 307.072 20.8248 305.173 20.8248C302.713 20.8248 300.653 21.9594 299.003 24.2287C297.354 26.498 296.524 29.589 296.524 33.5114L296.524 51.4604L290.754 51.4604L290.754 16.247L296.524 16.247L296.524 23.5049L296.664 23.5049C297.484 21.0302 298.733 19.0935 300.423 17.7143C302.113 16.3253 303.993 15.6308 306.083 15.6308C307.582 15.6308 308.732 15.7873 309.532 16.1101L309.532 21.9594Z"
            fill-rule="nonzero" opacity="1" stroke="none" />
        <path
            d="M316.152 7.31655C315.122 7.31655 314.242 6.9742 313.512 6.28949C312.782 5.60479 312.422 4.73424 312.422 3.67784C312.422 2.62144 312.782 1.75089 313.512 1.04662C314.242 0.352133 315.122 0 316.152 0C317.201 0 318.101 0.352133 318.841 1.04662C319.581 1.75089 319.951 2.62144 319.951 3.67784C319.951 4.68533 319.581 5.5461 318.841 6.26015C318.101 6.95463 317.201 7.31655 316.152 7.31655ZM318.961 51.4702L313.192 51.4702L313.192 16.2568L318.961 16.2568L318.961 51.4702Z"
            fill-rule="nonzero" opacity="1" stroke="none" />
        <path
            d="M328.26 46.3838L328.12 46.3838L328.12 67.6683L322.351 67.6683L322.351 16.2568L328.12 16.2568L328.12 22.4485L328.26 22.4485C331.1 17.773 335.239 15.4352 340.709 15.4352C345.348 15.4352 348.968 17.01 351.568 20.1596C354.167 23.3093 355.467 27.5349 355.467 32.8364C355.467 38.7249 354.007 43.4494 351.078 46.9902C348.148 50.5311 344.139 52.3016 339.059 52.3016C334.39 52.2918 330.79 50.3257 328.26 46.3838ZM328.12 32.1811L328.12 37.1012C328.12 40.016 329.09 42.481 331.02 44.5155C332.95 46.5501 335.409 47.5576 338.389 47.5576C341.879 47.5576 344.618 46.2469 346.598 43.6352C348.578 41.0235 349.568 37.3848 349.568 32.7386C349.568 28.8163 348.638 25.7449 346.788 23.5245C344.938 21.3041 342.429 20.189 339.269 20.189C335.919 20.189 333.22 21.3334 331.18 23.6125C329.14 25.8818 328.12 28.738 328.12 32.1811Z"
            fill-rule="nonzero" opacity="1" stroke="none" />
        <path
            d="M377.055 51.1278C375.695 51.8614 373.905 52.2233 371.676 52.2233C365.376 52.2233 362.217 48.7803 362.217 41.9039L362.217 21.0693L356.027 21.0693L356.027 16.2568L362.217 16.2568L362.217 7.6589L367.986 5.83955L367.986 16.2568L377.055 16.2568L377.055 21.0693L367.986 21.0693L367.986 40.9062C367.986 43.2635 368.396 44.9557 369.216 45.9632C370.036 46.9707 371.396 47.4793 373.295 47.4793C374.745 47.4793 376.005 47.0881 377.055 46.3055L377.055 51.1278Z"
            fill-rule="nonzero" opacity="1" stroke="none" />
    </g>
</svg>
